<svg width="1024" height="1024" viewBox="0 0 1024 1024" fill="none" xmlns="http://www.w3.org/2000/svg">
<g clip-path="url(#clip0_224_121)">
<path d="M336.23 886.35C392.3 917.97 486.41 937.75 583.35 923.65C816.1 889.78 977.57 673.33 943.7 440.57C909.85 207.83 693.41 46.3599 460.65 80.2199C227.9 114.08 66.4299 330.53 100.3 563.28C107.16 610.48 121.53 654.74 129.95 671.29C136.62 684.39 138.98 706.57 135.23 720.79L108.43 822.22C91.6799 885.63 129.46 923.15 192.75 905.95L287.34 880.25C301.52 876.39 323.44 879.13 336.24 886.35H336.23Z" fill="#4641D9"/>
<ellipse cx="538.5" cy="502.5" rx="360.5" ry="303.5" fill="#B7B4FF"/>
<g clip-path="url(#clip1_224_121)">
<path d="M602.017 83.6696C833.331 128.138 984.799 351.704 940.331 583.018C895.862 814.332 672.297 965.8 440.983 921.331C209.669 876.863 58.2008 653.297 102.669 421.983C147.138 190.669 370.703 39.2011 602.017 83.6696ZM406.316 497.419C380.887 492.53 355.602 493.616 330.461 500.674C305.571 507.781 283.599 522.558 264.549 545.006C252.175 559.811 242.258 578.728 234.798 601.755C227.895 623.062 242.851 644.371 264.843 648.599C287.384 652.933 307.855 637.232 317.519 616.413C322.996 604.608 329.873 595.734 338.146 589.79C354.043 578.368 372.089 574.6 392.283 578.482C405.746 581.07 417.44 586.808 427.364 595.695C437.337 604.334 449.788 618.232 464.718 637.389C487.492 666.843 508.297 689.068 527.13 704.062C546.011 718.809 568.165 728.626 593.594 733.515C619.024 738.403 644.309 737.318 669.449 730.26C694.59 723.201 716.685 708.447 735.736 686C748.322 671.169 758.269 652.165 765.577 628.988C772.285 607.71 757.262 586.601 735.352 582.389C712.671 578.031 692.075 593.926 681.841 614.634C676.852 624.728 670.677 632.888 663.316 639.116C647.879 652.177 629.316 656.623 607.627 652.454C594.164 649.865 582.571 644.274 572.849 635.685C563.422 626.892 550.87 612.846 535.191 593.545C511.976 565.041 490.974 543.166 472.19 527.92C453.703 512.475 431.745 502.308 406.316 497.419ZM449.738 271.55C424.309 266.661 399.024 267.747 373.883 274.805C348.993 281.912 327.02 296.689 307.971 319.136C295.597 333.942 285.68 352.858 278.22 375.885C271.317 397.191 286.273 418.501 308.265 422.73C330.806 427.063 351.277 411.363 360.94 390.544C366.418 378.739 373.295 369.865 381.568 363.919C397.465 352.499 415.511 348.729 435.705 352.611C449.168 355.199 460.862 360.939 470.786 369.826C480.758 378.465 493.209 392.363 508.139 411.519C530.914 440.974 551.719 463.199 570.552 478.193C589.433 492.94 611.587 502.757 637.016 507.646C662.445 512.534 687.73 511.449 712.871 504.391C738.011 497.331 760.107 482.578 779.158 460.131C791.744 445.3 801.691 426.296 808.999 403.118C815.707 381.839 800.684 360.732 778.774 356.52C756.093 352.16 735.497 368.057 725.263 388.765C720.274 398.858 714.099 407.019 706.738 413.247C691.301 426.308 672.739 430.752 651.049 426.583C637.586 423.994 625.993 418.405 616.271 409.816C606.844 401.023 594.292 386.977 578.613 367.676C555.398 339.171 534.397 317.295 515.612 302.051C497.125 286.606 475.167 276.438 449.738 271.55Z" fill="#4641D9"/>
</g>
<path d="M390.673 -8.92417C387.116 -8.79519 383.54 -8.45616 379.967 -7.9992C313.523 -2.00629 272.04 50.1031 261.881 99.5076L245.471 179.206L212.715 108.465V108.463C191.107 61.8125 141.395 24.9494 81.8956 33.0318C52.1521 37.0725 26.0587 53.5026 11.7651 77.6079C-0.87669 98.9262 -3.49497 125.919 4.7081 150.336V151.818L149.712 461.402C172.618 510.323 224.708 541.66 281.851 533.889C338.486 526.187 382.703 485.649 396.01 432.48L479.992 96.904C486.796 69.719 481.506 38.7621 461.448 17.3719C443.897 -1.34389 417.763 -9.90717 390.673 -8.92417Z" fill="#1D2021"/>
<path d="M44.1839 143.03L185.462 444.657C200.202 476.146 239.372 499.826 276.532 494.772C313.692 489.719 349.275 456.615 357.714 422.896L441.697 87.3203C450.136 53.6015 428.253 25.228 384.345 31.1979C336.982 35.0571 307.55 73.409 300.548 107.46L265.687 276.772C262.536 292.084 254.65 292.996 248.091 278.817L176.894 125.056C162.283 93.5113 125.727 66.9159 87.2086 72.1487C48.6899 77.3816 29.4343 111.541 44.1839 143.021V143.03Z" fill="#EDEDED"/>
<path d="M776.525 497.043C744.826 496.448 713.312 502 683.725 513.392L683.721 513.394H683.719C656.361 523.933 631.066 539.195 608.987 558.483C586.782 577.874 568.131 600.992 553.874 626.796V626.798C539.098 653.546 529.246 682.731 524.788 712.962V712.968L524.786 712.973C522.958 725.392 522.001 737.973 522 750.647V750.66C521.958 810.137 542.833 867.734 580.971 913.374L580.975 913.377L580.977 913.381C599.842 935.943 622.565 954.974 648.088 969.586L648.107 969.597L648.125 969.608C674.611 984.732 703.683 994.789 733.854 999.264L733.869 999.265C769.275 1004.54 805.407 1002.01 839.73 991.839L839.748 991.833L839.767 991.828C861.768 985.285 882.758 975.731 902.143 963.438L902.146 963.436C934 943.29 950.679 905.642 944.198 868.515C937.72 831.397 909.284 801.63 872.504 793.458C848.362 788.081 823.072 792.492 802.176 805.724L802.154 805.739L802.132 805.753C797.316 808.814 792.097 811.192 786.627 812.819C781.256 814.408 775.685 815.214 770.084 815.214H770.009C759.761 815.233 749.686 812.575 740.781 807.503C734.497 803.891 728.899 799.2 724.243 793.645L724.237 793.638C714.196 781.614 708.705 766.441 708.725 750.776V750.762C708.735 738.965 711.702 727.358 717.354 717.004C721.104 710.258 725.994 704.212 731.807 699.136L731.819 699.125L731.829 699.115C737.442 694.21 743.87 690.327 750.823 687.64C759.729 684.215 769.334 683.004 778.812 684.11C788.289 685.217 797.357 688.609 805.234 693.993C812.676 699.116 818.931 705.777 823.577 713.525H823.579V713.527C849.862 757.385 907.866 771.89 951.699 745.569L951.708 745.564L951.718 745.558C995.486 719.245 1009.97 661.344 983.741 617.524L983.729 617.5L983.715 617.477C965.25 586.727 940.395 560.302 910.831 539.992L910.807 539.974L910.782 539.958C880.04 518.91 844.91 505.135 808.054 499.675C797.612 498.12 787.081 497.241 776.525 497.043Z" fill="#EDEDED"/>
<path d="M822.688 838.1C835.013 830.291 849.932 827.69 864.173 830.868C885.922 835.692 902.612 853.16 906.443 875.106C910.273 897.051 900.487 919.14 881.659 931.048C865.247 941.46 847.472 949.552 828.842 955.093C799.877 963.675 769.385 965.813 739.506 961.358C714.035 957.584 689.49 949.095 667.13 936.326C645.547 923.97 626.332 907.877 610.379 888.798C578 850.053 560.282 801.154 560.326 750.661C560.326 739.91 561.137 729.195 562.703 718.555C566.492 692.864 574.864 668.062 587.421 645.331C599.522 623.428 615.354 603.805 634.203 587.346C652.903 571.01 674.325 558.085 697.495 549.159C730.889 536.301 767.045 532.314 802.438 537.588C833.531 542.194 863.187 553.821 889.13 571.583C914.169 588.783 935.219 611.162 950.856 637.206C966.459 663.277 958.01 697.058 931.97 712.714C905.903 728.366 872.082 719.909 856.453 693.828C848.971 681.345 838.892 670.618 826.898 662.375C813.889 653.487 798.918 647.888 783.27 646.059C767.621 644.23 751.763 646.225 737.055 651.872C725.908 656.175 715.603 662.398 706.607 670.261C697.409 678.287 689.68 687.855 683.768 698.535C675.01 714.541 670.413 732.49 670.4 750.735C670.372 775.395 679.018 799.28 694.823 818.209C702.401 827.264 711.521 834.905 721.762 840.781C736.481 849.173 753.139 853.572 770.083 853.54C779.369 853.54 788.619 852.205 797.537 849.56C806.41 846.922 814.875 843.065 822.688 838.1Z" fill="#1D2021"/>
</g>
<defs>
<clipPath id="clip0_224_121">
<rect width="1024" height="1024" fill="white"/>
</clipPath>
<clipPath id="clip1_224_121">
<rect width="853" height="853" fill="white" transform="translate(183.187 3.15234) rotate(10.8819)"/>
</clipPath>
</defs>
</svg>
